<svg width="16" height="16" viewBox="0 0 16 16" fill="none" xmlns="http://www.w3.org/2000/svg"><path d="M12.742 5.39667C12.908 5.58007 12.9999 5.81862 12.9999 6.06601C12.9999 6.31339 12.908 6.55194 12.742 6.73534L8.47729 10.7007C8.35434 10.8149 8.19284 10.8785 8.02502 10.8789C7.8572 10.8793 7.69541 10.8163 7.57196 10.7027L3.21729 6.696C3.06449 6.50835 2.98895 6.26952 3.00604 6.02812C3.02313 5.78673 3.13157 5.56092 3.30929 5.39667C3.48864 5.23228 3.71965 5.1355 3.96261 5.12297C4.20558 5.11044 4.44532 5.18294 4.64063 5.32801L8.02596 8.42001L11.3393 5.39667C11.5401 5.24142 11.7868 5.15719 12.0406 5.15719C12.2945 5.15719 12.5411 5.24142 12.742 5.39667Z" fill="white"/></svg>