<svg width="40" height="40" viewBox="0 0 40 40" fill="none" xmlns="http://www.w3.org/2000/svg"><path d="M18.23 12.072C17.2681 11.2884 16.0389 10.9104 14.803 11.0181C13.567 11.1258 12.4217 11.7108 11.61 12.649C10.9175 13.3449 10.4236 14.2131 10.1792 15.1639C9.93481 16.1147 9.94889 17.1135 10.22 18.057C11.075 21.777 15.5 25.952 18.84 28.594C19.1695 28.8569 19.5785 29 20 29C20.4215 29 20.8305 28.8569 21.16 28.594C24.5 25.952 28.925 21.778 29.78 18.057C30.0501 17.1135 30.0638 16.115 29.8197 15.1644C29.5755 14.2138 29.0823 13.3456 28.391 12.649C27.5792 11.7108 26.4339 11.1258 25.198 11.0181C23.962 10.9104 22.7328 11.2884 21.771 12.072L20.645 13.022C20.4645 13.1743 20.2361 13.2578 20 13.2578C19.7639 13.2578 19.5354 13.1743 19.355 13.022L18.23 12.072Z" fill="white"/></svg>