<svg width="24" height="24" viewBox="0 0 24 24" fill="none" xmlns="http://www.w3.org/2000/svg"><path d="M22 12C22 17.523 17.523 22 12 22C6.477 22 2 17.523 2 12C2 6.477 6.477 2 12 2C17.523 2 22 6.477 22 12ZM6.21 15.975C6.85885 16.9095 7.72452 17.6729 8.73289 18.1997C9.74127 18.7266 10.8623 19.0012 12 19C13.1376 19.0013 14.2586 18.7268 15.267 18.2002C16.2753 17.6735 17.141 16.9104 17.79 15.976C18.217 15.363 17.964 14.541 17.29 14.214C15.6418 13.4126 13.8327 12.9975 12 13C10.102 13 8.307 13.436 6.71 14.213C6.037 14.54 5.783 15.363 6.21 15.975ZM10.994 5C10.17 5 9.5 5.618 9.5 6.381V8.691C9.5 9.965 10.62 11 12 11C13.38 11 14.5 9.965 14.5 8.69V6.382C14.5 5.618 13.83 5 13.005 5H10.994Z" fill="white"/></svg>