<svg width="20" height="20" viewBox="0 0 20 20" fill="none" xmlns="http://www.w3.org/2000/svg"><path d="M18.75 11.25V18.125C18.75 18.2908 18.6842 18.4497 18.5669 18.5669C18.4497 18.6842 18.2908 18.75 18.125 18.75H1.875C1.70924 18.75 1.55027 18.6842 1.43306 18.5669C1.31585 18.4497 1.25 18.2908 1.25 18.125V4.375C1.25 4.20924 1.31585 4.05027 1.43306 3.93306C1.55027 3.81585 1.70924 3.75 1.875 3.75H18.125C18.2908 3.75 18.4497 3.81585 18.5669 3.93306C18.6842 4.05027 18.75 4.20924 18.75 4.375V11.25ZM20 11.25V4.375C20 3.87772 19.8025 3.40081 19.4508 3.04917C19.0992 2.69754 18.6223 2.5 18.125 2.5H1.875C1.37772 2.5 0.900805 2.69754 0.549175 3.04917C0.197544 3.40081 0 3.87772 0 4.375V18.125C0 18.6223 0.197544 19.0992 0.549175 19.4508C0.723285 19.6249 0.929983 19.763 1.15747 19.8573C1.38495 19.9515 1.62877 20 1.875 20H18.125C18.6223 20 19.0992 19.8025 19.4508 19.4508C19.8025 19.0992 20 18.6223 20 18.125V11.25ZM0.625 8.75H19.375C19.5408 8.75 19.6997 8.68415 19.8169 8.56694C19.9342 8.44973 20 8.29076 20 8.125C20 7.95924 19.9342 7.80027 19.8169 7.68306C19.6997 7.56585 19.5408 7.5 19.375 7.5H0.625C0.45924 7.5 0.300269 7.56585 0.183058 7.68306C0.065848 7.80027 0 7.95924 0 8.125C0 8.29076 0.065848 8.44973 0.183058 8.56694C0.300269 8.68415 0.45924 8.75 0.625 8.75ZM6.25 5V0.625C6.25 0.45924 6.18415 0.300269 6.06694 0.183058C5.94973 0.065848 5.79076 0 5.625 0C5.45924 0 5.30027 0.065848 5.18306 0.183058C5.06585 0.300269 5 0.45924 5 0.625V5C5 5.16576 5.06585 5.32473 5.18306 5.44194C5.30027 5.55915 5.45924 5.625 5.625 5.625C5.79076 5.625 5.94973 5.55915 6.06694 5.44194C6.18415 5.32473 6.25 5.16576 6.25 5ZM15 5V0.625C15 0.45924 14.9342 0.300269 14.8169 0.183058C14.6997 0.065848 14.5408 0 14.375 0C14.2092 0 14.0503 0.065848 13.9331 0.183058C13.8158 0.300269 13.75 0.45924 13.75 0.625V5C13.75 5.16576 13.8158 5.32473 13.9331 5.44194C14.0503 5.55915 14.2092 5.625 14.375 5.625C14.5408 5.625 14.6997 5.55915 14.8169 5.44194C14.9342 5.32473 15 5.16576 15 5Z" fill="black"/></svg>