<svg width="20" height="20" viewBox="0 0 20 20" fill="none" xmlns="http://www.w3.org/2000/svg"><path d="M11.25 2.5C11.25 2.83152 11.1183 3.14946 10.8839 3.38388C10.6495 3.6183 10.3315 3.75 10 3.75C9.66848 3.75 9.35054 3.6183 9.11612 3.38388C8.8817 3.14946 8.75 2.83152 8.75 2.5C8.75 2.16848 8.8817 1.85054 9.11612 1.61612C9.35054 1.3817 9.66848 1.25 10 1.25C10.3315 1.25 10.6495 1.3817 10.8839 1.61612C11.1183 1.85054 11.25 2.16848 11.25 2.5ZM12.5 2.5C12.5 1.83696 12.2366 1.20107 11.7678 0.732233C11.2989 0.263392 10.663 0 10 0C9.33696 0 8.70107 0.263392 8.23223 0.732233C7.76339 1.20107 7.5 1.83696 7.5 2.5C7.5 3.16304 7.76339 3.79893 8.23223 4.26777C8.70107 4.73661 9.33696 5 10 5C10.663 5 11.2989 4.73661 11.7678 4.26777C12.2366 3.79893 12.5 3.16304 12.5 2.5ZM17.5 6.25C17.5 6.58152 17.3683 6.89946 17.1339 7.13388C16.8995 7.3683 16.5815 7.5 16.25 7.5C15.9185 7.5 15.6005 7.3683 15.3661 7.13388C15.1317 6.89946 15 6.58152 15 6.25C15 5.91848 15.1317 5.60054 15.3661 5.36612C15.6005 5.1317 15.9185 5 16.25 5C16.5815 5 16.8995 5.1317 17.1339 5.36612C17.3683 5.60054 17.5 5.91848 17.5 6.25ZM18.75 6.25C18.75 5.58696 18.4866 4.95107 18.0178 4.48223C17.5489 4.01339 16.913 3.75 16.25 3.75C15.587 3.75 14.9511 4.01339 14.4822 4.48223C14.0134 4.95107 13.75 5.58696 13.75 6.25C13.75 6.91304 14.0134 7.54893 14.4822 8.01777C14.9511 8.48661 15.587 8.75 16.25 8.75C16.913 8.75 17.5489 8.48661 18.0178 8.01777C18.4866 7.54893 18.75 6.91304 18.75 6.25ZM5 6.25C5 6.58152 4.8683 6.89946 4.63388 7.13388C4.39946 7.3683 4.08152 7.5 3.75 7.5C3.41848 7.5 3.10054 7.3683 2.86612 7.13388C2.6317 6.89946 2.5 6.58152 2.5 6.25C2.5 5.91848 2.6317 5.60054 2.86612 5.36612C3.10054 5.1317 3.41848 5 3.75 5C4.08152 5 4.39946 5.1317 4.63388 5.36612C4.8683 5.60054 5 5.91848 5 6.25ZM6.25 6.25C6.25 5.58696 5.98661 4.95107 5.51777 4.48223C5.04893 4.01339 4.41304 3.75 3.75 3.75C3.08696 3.75 2.45107 4.01339 1.98223 4.48223C1.51339 4.95107 1.25 5.58696 1.25 6.25C1.25 6.91304 1.51339 7.54893 1.98223 8.01777C2.45107 8.48661 3.08696 8.75 3.75 8.75C4.41304 8.75 5.04893 8.48661 5.51777 8.01777C5.98661 7.54893 6.25 6.91304 6.25 6.25ZM17.5 12.5C17.5 12.8315 17.3683 13.1495 17.1339 13.3839C16.8995 13.6183 16.5815 13.75 16.25 13.75C15.9185 13.75 15.6005 13.6183 15.3661 13.3839C15.1317 13.1495 15 12.8315 15 12.5C15 12.1685 15.1317 11.8505 15.3661 11.6161C15.6005 11.3817 15.9185 11.25 16.25 11.25C16.5815 11.25 16.8995 11.3817 17.1339 11.6161C17.3683 11.8505 17.5 12.1685 17.5 12.5ZM18.75 12.5C18.75 11.837 18.4866 11.2011 18.0178 10.7322C17.5489 10.2634 16.913 10 16.25 10C15.587 10 14.9511 10.2634 14.4822 10.7322C14.0134 11.2011 13.75 11.837 13.75 12.5C13.75 13.163 14.0134 13.7989 14.4822 14.2678C14.9511 14.7366 15.587 15 16.25 15C16.913 15 17.5489 14.7366 18.0178 14.2678C18.4866 13.7989 18.75 13.163 18.75 12.5ZM11.25 9.375C11.25 9.70652 11.1183 10.0245 10.8839 10.2589C10.6495 10.4933 10.3315 10.625 10 10.625C9.66848 10.625 9.35054 10.4933 9.11612 10.2589C8.8817 10.0245 8.75 9.70652 8.75 9.375C8.75 9.04348 8.8817 8.72554 9.11612 8.49112C9.35054 8.2567 9.66848 8.125 10 8.125C10.3315 8.125 10.6495 8.2567 10.8839 8.49112C11.1183 8.72554 11.25 9.04348 11.25 9.375ZM12.5 9.375C12.5 8.71196 12.2366 8.07607 11.7678 7.60723C11.2989 7.13839 10.663 6.875 10 6.875C9.33696 6.875 8.70107 7.13839 8.23223 7.60723C7.76339 8.07607 7.5 8.71196 7.5 9.375C7.5 10.038 7.76339 10.6739 8.23223 11.1428C8.70107 11.6116 9.33696 11.875 10 11.875C10.663 11.875 11.2989 11.6116 11.7678 11.1428C12.2366 10.6739 12.5 10.038 12.5 9.375ZM5 12.5C5 12.8315 4.8683 13.1495 4.63388 13.3839C4.39946 13.6183 4.08152 13.75 3.75 13.75C3.41848 13.75 3.10054 13.6183 2.86612 13.3839C2.6317 13.1495 2.5 12.8315 2.5 12.5C2.5 12.1685 2.6317 11.8505 2.86612 11.6161C3.10054 11.3817 3.41848 11.25 3.75 11.25C4.08152 11.25 4.39946 11.3817 4.63388 11.6161C4.8683 11.8505 5 12.1685 5 12.5ZM6.25 12.5C6.25 11.837 5.98661 11.2011 5.51777 10.7322C5.04893 10.2634 4.41304 10 3.75 10C3.08696 10 2.45107 10.2634 1.98223 10.7322C1.51339 11.2011 1.25 11.837 1.25 12.5C1.25 13.163 1.51339 13.7989 1.98223 14.2678C2.45107 14.7366 3.08696 15 3.75 15C4.41304 15 5.04893 14.7366 5.51777 14.2678C5.98661 13.7989 6.25 13.163 6.25 12.5ZM14.6383 13.5642C13.9396 14.3387 13.0581 14.926 12.0742 15.2725C11.9178 15.3275 11.7897 15.4424 11.718 15.5919C11.6464 15.7414 11.6371 15.9132 11.6921 16.0696C11.7471 16.226 11.862 16.3541 12.0115 16.4257C12.161 16.4974 12.3328 16.5067 12.4892 16.4517C13.67 16.0359 14.728 15.3311 15.5667 14.4017C15.6217 14.3407 15.6641 14.2695 15.6916 14.1922C15.7191 14.1148 15.731 14.0328 15.7268 13.9508C15.7226 13.8688 15.7023 13.7885 15.667 13.7143C15.6317 13.6402 15.5822 13.5737 15.5212 13.5187C15.4603 13.4638 15.3891 13.4213 15.3117 13.3938C15.2344 13.3664 15.1524 13.3544 15.0704 13.3586C14.9884 13.3628 14.908 13.3831 14.8339 13.4184C14.7598 13.4537 14.6933 13.5032 14.6383 13.5642ZM16.1367 8.17583C16.2842 8.94417 16.2892 9.73333 16.1492 10.5025C16.1196 10.6656 16.1559 10.8338 16.2503 10.9701C16.3447 11.1064 16.4894 11.1996 16.6525 11.2292C16.8156 11.2588 16.9838 11.2224 17.1201 11.128C17.2564 11.0336 17.3496 10.8889 17.3792 10.7258C17.5458 9.80417 17.5408 8.85917 17.3633 7.93917C17.3502 7.85635 17.3206 7.77701 17.2762 7.70587C17.2318 7.63474 17.1736 7.57327 17.1049 7.52512C17.0363 7.47697 16.9586 7.44312 16.8766 7.4256C16.7946 7.40808 16.7099 7.40723 16.6276 7.42312C16.5453 7.439 16.467 7.47129 16.3974 7.51806C16.3278 7.56483 16.2683 7.62513 16.2225 7.69536C16.1767 7.7656 16.1455 7.84433 16.1307 7.92687C16.116 8.00942 16.118 8.09408 16.1367 8.17583ZM11.6892 3.35583C12.8256 3.67502 13.8484 4.3095 14.6392 5.18583C14.7519 5.3017 14.9052 5.36937 15.0668 5.37463C15.2283 5.37989 15.3857 5.32233 15.5057 5.21404C15.6258 5.10575 15.6992 4.95516 15.7105 4.79389C15.7219 4.63262 15.6703 4.47322 15.5667 4.34917C14.618 3.29746 13.391 2.53586 12.0275 2.1525C11.9484 2.12996 11.8656 2.12325 11.7839 2.13277C11.7022 2.14229 11.6232 2.16784 11.5513 2.20797C11.4795 2.24809 11.4164 2.302 11.3654 2.3666C11.3145 2.43119 11.2768 2.50521 11.2545 2.5844C11.2323 2.66359 11.2259 2.7464 11.2357 2.82808C11.2455 2.90975 11.2713 2.98869 11.3117 3.06036C11.3521 3.13203 11.4062 3.19502 11.471 3.24572C11.5357 3.29643 11.6099 3.33385 11.6892 3.35583ZM5.36167 5.18583C6.15223 4.30963 7.17472 3.67517 8.31083 3.35583C8.3901 3.33385 8.46425 3.29643 8.52903 3.24572C8.5938 3.19502 8.64793 3.13203 8.68831 3.06036C8.72869 2.98869 8.75453 2.90975 8.76433 2.82808C8.77414 2.7464 8.76772 2.66359 8.74546 2.5844C8.72319 2.50521 8.68551 2.43119 8.63458 2.3666C8.58365 2.302 8.52046 2.24809 8.44865 2.20797C8.37684 2.16784 8.29781 2.14229 8.2161 2.13277C8.1344 2.12325 8.05161 2.12996 7.9725 2.1525C6.60903 2.53586 5.38198 3.29746 4.43333 4.34917C4.32645 4.47288 4.27229 4.63355 4.28248 4.79673C4.29267 4.9599 4.3664 5.11259 4.48784 5.22204C4.60929 5.33149 4.76879 5.389 4.93214 5.38224C5.09549 5.37547 5.24969 5.30496 5.36167 5.18583ZM3.86333 10.575C3.71058 9.78285 3.71058 8.96881 3.86333 8.17667C3.88199 8.09492 3.884 8.01025 3.86925 7.92771C3.8545 7.84516 3.8233 7.76643 3.77749 7.6962C3.73168 7.62597 3.67221 7.56567 3.60262 7.5189C3.53302 7.47212 3.45473 7.43984 3.37239 7.42395C3.29006 7.40807 3.20538 7.40891 3.12338 7.42643C3.04138 7.44396 2.96374 7.4778 2.89509 7.52595C2.82645 7.5741 2.76819 7.63557 2.72379 7.70671C2.6794 7.77784 2.64977 7.85718 2.63667 7.94C2.45377 8.88849 2.45377 9.86318 2.63667 10.8117C2.67273 10.9697 2.76879 11.1076 2.90457 11.1961C3.04035 11.2847 3.20523 11.317 3.36441 11.2863C3.52358 11.2556 3.6646 11.1642 3.75769 11.0315C3.85078 10.8988 3.88866 10.7351 3.86333 10.575ZM7.92667 15.2742C6.95928 14.9332 6.09068 14.3594 5.3975 13.6033C5.28545 13.4811 5.12943 13.4084 4.96377 13.4012C4.79812 13.394 4.63639 13.4529 4.51417 13.565C4.39195 13.6771 4.31924 13.8331 4.31206 13.9987C4.30487 14.1644 4.36378 14.3261 4.47583 14.4483C5.30751 15.3552 6.34952 16.0435 7.51 16.4525C7.58773 16.4814 7.67044 16.4946 7.75331 16.4912C7.83618 16.4879 7.91755 16.4681 7.99268 16.4329C8.06782 16.3978 8.13521 16.3481 8.19093 16.2866C8.24665 16.2252 8.28958 16.1533 8.31723 16.0751C8.34488 15.9969 8.35669 15.914 8.35198 15.8312C8.34726 15.7484 8.32611 15.6674 8.28976 15.5928C8.2534 15.5183 8.20258 15.4517 8.14024 15.397C8.0779 15.3423 8.0053 15.3005 7.92667 15.2742ZM6.09167 18.2267C6.00387 18.4171 5.9654 18.6266 5.97979 18.8358C5.99418 19.045 6.06097 19.2472 6.17402 19.4238C6.28707 19.6005 6.44273 19.7458 6.62668 19.8465C6.81064 19.9472 7.01696 20 7.22667 20H12.7733C12.983 20 13.1894 19.9472 13.3733 19.8465C13.5573 19.7458 13.7129 19.6005 13.826 19.4238C13.939 19.2472 14.0058 19.045 14.0202 18.8358C14.0346 18.6266 13.9961 18.4171 13.9083 18.2267L11.1467 11.3792C10.8458 10.725 10.1033 10.4508 9.47583 10.74C9.20596 10.8648 8.98939 11.0816 8.865 11.3517L6.07917 18.2542L6.09167 18.2267ZM7.23917 18.7225L10.0125 11.8475L10 11.875L12.7608 18.7225L12.7733 18.75H7.22667L7.23917 18.7225Z" fill="black"/></svg>