<svg width="40" height="40" viewBox="0 0 40 40" fill="none" xmlns="http://www.w3.org/2000/svg"><path d="M18.53 14.61C18.0526 14.758 17.5846 14.9337 17.126 15.137L16.8549 14.822C16.8381 14.8068 16.8244 14.7883 16.8148 14.7677C16.8052 14.7471 16.7998 14.7247 16.799 14.702C16.8088 14.6623 16.8326 14.6276 16.866 14.604C16.967 14.512 17.085 14.304 17.209 14.084C17.394 13.758 17.592 13.407 17.769 13.381C18.042 13.341 18.267 13.958 18.405 14.333C18.465 14.499 18.508 14.617 18.53 14.61Z" fill="white"/><path d="M10.762 16.173C11.2588 14.9515 11.9922 13.8403 12.9201 12.9033C13.8481 11.9664 14.9521 11.2223 16.1688 10.7137C17.3855 10.2052 18.6907 9.9423 20.0094 9.9402C21.328 9.9381 22.6341 10.1968 23.8523 10.7015C25.0706 11.2062 26.1771 11.9468 27.108 12.8808C28.0389 13.8147 28.7758 14.9236 29.2765 16.1435C29.7772 17.3634 30.0316 18.6703 30.0252 19.989C30.0187 21.3076 29.7515 22.612 29.239 23.827C28.2125 26.2603 26.2651 28.1887 23.8219 29.1914C21.3787 30.1941 18.6381 30.1896 16.1982 29.1789C13.7583 28.1682 11.8173 26.2333 10.7988 23.7967C9.78033 21.36 9.7671 18.6194 10.762 16.173ZM22.924 18.997C23.1367 18.9583 23.3467 18.9216 23.554 18.887C23.948 18.577 23.616 17.885 23.137 17.734C22.6402 17.6592 22.1342 17.67 21.641 17.766C21.14 17.786 20.533 17.558 20.468 17.06C20.4627 17.0085 20.4593 16.9568 20.458 16.905C20.453 16.755 20.448 16.605 20.334 16.52C20.2738 16.4881 20.2067 16.4714 20.1386 16.4712C20.0705 16.471 20.0034 16.4874 19.943 16.519C19.4291 16.7688 18.9365 17.0601 18.47 17.39C18.2343 17.5527 17.9613 17.6533 17.6763 17.6823C17.3914 17.7113 17.1037 17.6679 16.84 17.556L16.893 16.588C17.035 16.408 17.298 16.378 17.549 16.348C17.839 16.315 18.115 16.283 18.169 16.024C18.1748 15.9036 18.1677 15.7829 18.148 15.664C18.143 15.274 18.528 15.072 18.911 14.871C19.295 14.67 19.679 14.468 19.677 14.079C19.6443 13.8761 19.5806 13.6794 19.488 13.496C19.4263 13.2252 19.4401 12.9426 19.5277 12.6791C19.6153 12.4155 19.7735 12.181 19.985 12.001C17.8633 12.0031 15.8293 12.848 14.3305 14.3498C12.8317 15.8516 11.9909 17.8872 11.993 20.009C11.9951 22.1307 12.84 24.1647 14.3418 25.6635C15.8436 27.1623 17.8793 28.0031 20.001 28.001C20.057 27.9996 20.113 27.9966 20.169 27.992L20.286 27.986C20.1871 27.4078 20.1346 26.8226 20.129 26.236C20.129 26.006 19.991 25.985 19.836 25.961C19.69 25.938 19.53 25.913 19.459 25.708L19.409 25.558C19.298 25.218 19.224 24.992 18.834 24.958C18.6743 24.9509 18.5186 24.9056 18.38 24.826C18.259 24.759 18.184 24.717 17.86 24.843C17.4709 24.9598 17.0554 24.9548 16.6693 24.8286C16.2832 24.7024 15.9449 24.4611 15.7 24.137C15.223 23.4758 14.9439 22.6927 14.895 21.879C14.901 21.618 14.981 21.363 15.125 21.146C15.195 21.006 15.411 20.882 15.607 20.769C15.721 20.704 15.827 20.642 15.897 20.583L16.027 20.473C16.52 20.055 16.881 19.75 17 19.083L19 19C20.198 19.49 21.608 19.235 22.924 18.997ZM24.004 20.728C24.3001 21.3931 24.7398 21.9843 25.2915 22.4593C25.8432 22.9342 26.4933 23.2811 27.195 23.475C27.4083 23.035 27.5797 22.5793 27.709 22.108L27.091 22.232C26.9341 22.2834 26.7641 22.2778 26.611 22.216C26.5031 22.1425 26.4179 22.0403 26.365 21.921C25.9903 21.2331 25.7041 20.5006 25.513 19.741L24.249 20.254C24.1928 20.2687 24.1402 20.2946 24.0943 20.3302C24.0484 20.3657 24.0102 20.4102 23.982 20.461C23.9584 20.5499 23.9662 20.6442 24.004 20.728Z" fill="white"/></svg>