<svg width="16" height="16" viewBox="0 0 16 16" fill="none" xmlns="http://www.w3.org/2000/svg"><path d="M2.456 3.37799C2.31303 3.4486 2.19376 3.55936 2.11277 3.69671C2.03178 3.83406 1.99259 3.99205 2 4.15133V6.28666C2.00524 6.48059 2.0871 6.66453 2.22767 6.79823C2.36824 6.93192 2.55606 7.00447 2.75 7H3.5C3.63261 7 3.75979 6.94732 3.85355 6.85355C3.94732 6.75978 4 6.6326 4 6.5V5.49999C4 5.36739 4.05268 5.24021 4.14645 5.14644C4.24021 5.05267 4.36739 4.99999 4.5 4.99999H6.5C6.63261 4.99999 6.75979 5.05267 6.85355 5.14644C6.94732 5.24021 7 5.36739 7 5.49999V6.5C7 6.6326 7.05268 6.75978 7.14645 6.85355C7.24022 6.94732 7.36739 7 7.5 7H8.5C8.63261 7 8.75979 6.94732 8.85355 6.85355C8.94732 6.75978 9 6.6326 9 6.5V5.49999C9 5.36739 9.05268 5.24021 9.14645 5.14644C9.24022 5.05267 9.36739 4.99999 9.5 4.99999H11.5C11.6326 4.99999 11.7598 5.05267 11.8536 5.14644C11.9473 5.24021 12 5.36739 12 5.49999V6.5C12 6.6326 12.0527 6.75978 12.1464 6.85355C12.2402 6.94732 12.3674 7 12.5 7H13.2487C13.4429 7.00447 13.6311 6.93165 13.7717 6.79752C13.9123 6.6634 13.9939 6.47894 13.9987 6.28466L13.998 5.57133H14V4.15133C14.0074 3.99205 13.9682 3.83406 13.8872 3.69671C13.8062 3.55936 13.687 3.4486 13.544 3.37799L12.2167 2.83666C9.51617 1.7214 6.48383 1.7214 3.78333 2.83666L2.456 3.37799ZM3 8C2.46957 8 1.96086 8.21071 1.58579 8.58578C1.21071 8.96085 1 9.46956 1 10V13.5C1 13.6326 1.05268 13.7598 1.14645 13.8535C1.24021 13.9473 1.36739 14 1.5 14H1.69067C1.78357 14 1.87464 13.9741 1.95365 13.9252C2.03267 13.8764 2.0965 13.8064 2.138 13.7233L3 12H13L13.862 13.7233C13.9034 13.8063 13.9672 13.8762 14.0461 13.9251C14.1249 13.9739 14.2159 13.9999 14.3087 14H14.5C14.6326 14 14.7598 13.9473 14.8536 13.8535C14.9473 13.7598 15 13.6326 15 13.5V10C15 9.46956 14.7893 8.96085 14.4142 8.58578C14.0391 8.21071 13.5304 8 13 8H3Z" fill="white"/></svg>