<svg width="16" height="16" viewBox="0 0 16 16" fill="none" xmlns="http://www.w3.org/2000/svg"><path d="M1.20125 4.41535L5.38725 6.86602C5.52867 6.94137 5.69072 6.96878 5.84905 6.94413C6.00738 6.91949 6.15343 6.84412 6.26525 6.72935L8.49992 4.50002C8.71325 4.28268 8.27592 4.07868 7.97859 4.02268L2.46259 2.89602C2.34265 2.87355 2.21903 2.88108 2.10271 2.91796C1.9864 2.95483 1.881 3.01989 1.79592 3.10735L1.10925 3.80668C1.06774 3.84944 1.03667 3.90121 1.01847 3.95796C1.00027 4.01471 0.995436 4.0749 1.00434 4.13383C1.01325 4.19275 1.03566 4.24882 1.06981 4.29766C1.10397 4.34649 1.14895 4.38677 1.20125 4.41535Z" fill="white"/><path d="M4.0833 10.0567C4.20066 10.0757 4.32089 10.0662 4.4338 10.029C4.54671 9.99173 4.64899 9.92782 4.73197 9.84266L12.5786 1.84599C12.9648 1.44828 13.4581 1.17109 13.9986 1.04799L14.1326 1.01933C14.2514 0.988874 14.3762 0.990171 14.4943 1.02309C14.6125 1.056 14.7199 1.11938 14.8058 1.20688C14.8918 1.29438 14.9532 1.40292 14.984 1.52164C15.0148 1.64036 15.0139 1.76509 14.9813 1.88333L14.9526 2.02066C14.8349 2.56773 14.5631 3.0697 14.1693 3.46733L11.6333 6.05199C11.5474 6.14028 11.4838 6.2478 11.4479 6.36562C11.4119 6.48343 11.4046 6.60813 11.4266 6.72933L12.588 13.2173C12.6169 13.3434 12.6137 13.4746 12.5788 13.5991C12.5438 13.7236 12.4782 13.8374 12.388 13.93L11.716 14.614C11.6746 14.6563 11.6237 14.688 11.5676 14.7067C11.5115 14.7253 11.4517 14.7303 11.3933 14.7211C11.3348 14.712 11.2794 14.689 11.2317 14.6542C11.1839 14.6193 11.1451 14.5735 11.1186 14.5207L8.67597 9.76733C8.64946 9.71446 8.61071 9.66868 8.56294 9.63381C8.51517 9.59894 8.45976 9.57598 8.40133 9.56685C8.3429 9.55772 8.28313 9.56268 8.227 9.58132C8.17087 9.59995 8.12 9.63173 8.07863 9.67399L6.35197 11.434C6.26032 11.5279 6.19406 11.6435 6.15942 11.7701C6.12478 11.8966 6.1229 12.0299 6.15397 12.1573L6.5953 13.988C6.60294 14.1828 6.55251 14.3754 6.45043 14.5415C6.34835 14.7076 6.19921 14.8395 6.02197 14.9207H6.0213C5.93128 14.9683 5.83232 14.9967 5.73074 15.004C5.62915 15.0112 5.52716 14.9973 5.43127 14.963C5.33537 14.9287 5.24767 14.8748 5.17376 14.8047C5.09985 14.7346 5.04134 14.6499 5.00197 14.556L4.1933 12.548C4.0827 12.3147 3.89701 12.1252 3.66597 12.01L1.52463 11.376C1.34215 11.2866 1.20204 11.1292 1.13446 10.9375C1.06689 10.7459 1.07724 10.5354 1.1633 10.3513C1.2326 10.1655 1.35815 10.0058 1.52246 9.8947C1.68677 9.78357 1.88166 9.72646 2.07997 9.73133L4.0833 10.0567Z" fill="white"/></svg>